# xmcd
#
# Track frame offsets:
#	150
#	13125
#	27551
#	46600
#	67041
#	83417
#	102051
#	118220
#	133155
#	149104
#	165380
#	181878
#	197673
#	217072
#	230373
#	247226
#	260025
#	277246
#
# Disc length: 3902 seconds
#
# Revision: 1
# Processed by: cddbd v1.5.2PL0 Copyright (c) Steve Scherf et al.
# Submitted via: EasyCDDAExtractor 16.0.9.1
#
DISCID=150f3c12
DTITLE=Varios - Voces Por Haiti
DYEAR=2010
DGENRE=Latin
TTITLE0=Vicente Fernández - Para Siempre
TTITLE1=Julieta Venegas - Me Voy
TTITLE2=Sin Bandera - Entra En Mi Vida
TTITLE3=Fóbia - Hoy Tengo Miedo
TTITLE4=Kalimba - No Me Quiero Enamorar
TTITLE5=Aleks Syntek - Historia De Danzon Y De Arrabal (Radio Edit)
TTITLE6=Reily - Desde Que Llegaste 
TTITLE7=OV7 - Somos Un Mundo
TTITLE8=Ha*Ash - Odio Amarte
TTITLE9=Natalia Lafourcade - En El 2000
TTITLE10=Reik - Yo Quisiera
TTITLE11=María José - No Soy Una Señora
TTITLE12=Chetes - Poco A Poco
TTITLE13=Allison - Me Cambió
TTITLE14=Le Baron - Inmóvil
TTITLE15=Pxnox - Hola
TTITLE16=Filippa Giordano - Me He Enamorado De Tí (Woman in love)
TTITLE17=Los Claxons - Plan perfecto
EXTD=YEAR: 2010
EXTT0=
EXTT1=
EXTT2=
EXTT3=
EXTT4=
EXTT5=
EXTT6=
EXTT7=
EXTT8=
EXTT9=
EXTT10=
EXTT11=
EXTT12=
EXTT13=
EXTT14=
EXTT15=
EXTT16=
EXTT17=
PLAYORDER=
